HIERARCHY
ROOT hip
{
  OFFSET 0 0 0
  CHANNELS 6 Xposition Yposition Zposition Zrotation Yrotation Xrotation
  JOINT abdomen
  {
    OFFSET 0 20.6881 -0.73152
    CHANNELS 3 Zrotation Xrotation Yrotation
    JOINT chest
    {
      OFFSET 0 11.7043 -0.48768
      CHANNELS 3 Zrotation Xrotation Yrotation
      JOINT neck
      {
        OFFSET 0 22.1894 -2.19456
        CHANNELS 3 Zrotation Xrotation Yrotation
        JOINT head
        {
          OFFSET -0.24384 7.07133 1.2192
          CHANNELS 3 Zrotation Xrotation Yrotation
          JOINT leftEye
          {
            OFFSET 4.14528 8.04674 8.04672
            CHANNELS 3 Zrotation Xrotation Yrotation
            End Site
            {
              OFFSET 1 0 0
            }
          }
          JOINT rightEye
          {
            OFFSET -3.6576 8.04674 8.04672
            CHANNELS 3 Zrotation Xrotation Yrotation
            End Site
            {
              OFFSET 1 0 0
            }
          }
        }
      }
      JOINT rCollar
      {
        OFFSET -2.68224 19.2634 -4.8768
        CHANNELS 3 Zrotation Xrotation Yrotation
        JOINT rShldr
        {
          OFFSET -8.77824 -1.95073 1.46304
          CHANNELS 3 Zrotation Xrotation Yrotation
          JOINT rForeArm
          {
            OFFSET -28.1742 -1.7115 0.48768
            CHANNELS 3 Zrotation Xrotation Yrotation
            JOINT rHand
            {
              OFFSET -22.5879 0.773209 7.07136
              CHANNELS 3 Zrotation Xrotation Yrotation
              JOINT rThumb1
              {
                OFFSET -1.2192 -0.487915 3.41376
                CHANNELS 3 Zrotation Xrotation Yrotation
                JOINT rThumb2
                {
                  OFFSET -3.37035 -0.52449 3.41376
                  CHANNELS 3 Zrotation Xrotation Yrotation
                  End Site
                  {
                    OFFSET -1.78271 -1.18214 1.43049
                  }
                }
              }
              JOINT rIndex1
              {
                OFFSET -7.75947 0.938293 5.60832
                CHANNELS 3 Zrotation Xrotation Yrotation
                JOINT rIndex2
                {
                  OFFSET -2.54057 -0.884171 1.56538
                  CHANNELS 3 Zrotation Xrotation Yrotation
                  End Site
                  {
                    OFFSET -1.62519 -0.234802 1.16502
                  }
                }
              }
              JOINT rMid1
              {
                OFFSET -8.24714 1.18213 3.41376
                CHANNELS 3 Zrotation Xrotation Yrotation
                JOINT rMid2
                {
                  OFFSET -3.10165 -0.590103 1.0647
                  CHANNELS 3 Zrotation Xrotation Yrotation
                  End Site
                  {
                    OFFSET -2.48547 -0.328903 0.83742
                  }
                }
              }
              JOINT rRing1
              {
                OFFSET -8.82822 0.546677 1.51678
                CHANNELS 3 Zrotation Xrotation Yrotation
                JOINT rRing2
                {
                  OFFSET -2.60934 -0.819778 -0.0198488
                  CHANNELS 3 Zrotation Xrotation Yrotation
                  End Site
                  {
                    OFFSET -2.33842 -0.294052 0.168128
                  }
                }
              }
              JOINT rPinky1
              {
                OFFSET -8.27202 -0.0477905 -0.4584
                CHANNELS 3 Zrotation Xrotation Yrotation
                JOINT rPinky2
                {
                  OFFSET -1.82734 -0.647385 -0.700984
                  CHANNELS 3 Zrotation Xrotation Yrotation
                  End Site
                  {
                    OFFSET -1.69225 -0.51767 -0.607171
                  }
                }
              }
            }
          }
        }
      }
      JOINT lCollar
      {
        OFFSET 2.68224 19.2634 -4.8768
        CHANNELS 3 Zrotation Xrotation Yrotation
        JOINT lShldr
        {
          OFFSET 8.77824 -1.95073 1.46304
          CHANNELS 3 Zrotation Xrotation Yrotation
          JOINT lForeArm
          {
            OFFSET 28.1742 -1.7115 0.48768
            CHANNELS 3 Zrotation Xrotation Yrotation
            JOINT lHand
            {
              OFFSET 22.5879 0.773209 7.07136
              CHANNELS 3 Zrotation Xrotation Yrotation
              JOINT lThumb1
              {
                OFFSET 1.2192 -0.487915 3.41376
                CHANNELS 3 Zrotation Xrotation Yrotation
                JOINT lThumb2
                {
                  OFFSET 3.37035 -0.52449 3.41376
                  CHANNELS 3 Zrotation Xrotation Yrotation
                  End Site
                  {
                    OFFSET 1.78271 -1.18214 1.43049
                  }
                }
              }
              JOINT lIndex1
              {
                OFFSET 7.75947 0.938293 5.60832
                CHANNELS 3 Zrotation Xrotation Yrotation
                JOINT lIndex2
                {
                  OFFSET 2.54057 -0.884171 1.56538
                  CHANNELS 3 Zrotation Xrotation Yrotation
                  End Site
                  {
                    OFFSET 1.62519 -0.234802 1.16502
                  }
                }
              }
              JOINT lMid1
              {
                OFFSET 8.24714 1.18213 3.41376
                CHANNELS 3 Zrotation Xrotation Yrotation
                JOINT lMid2
                {
                  OFFSET 3.10165 -0.590103 1.0647
                  CHANNELS 3 Zrotation Xrotation Yrotation
                  End Site
                  {
                    OFFSET 2.48547 -0.328903 0.83742
                  }
                }
              }
              JOINT lRing1
              {
                OFFSET 8.82822 0.546677 1.51678
                CHANNELS 3 Zrotation Xrotation Yrotation
                JOINT lRing2
                {
                  OFFSET 2.60934 -0.819778 -0.0198488
                  CHANNELS 3 Zrotation Xrotation Yrotation
                  End Site
                  {
                    OFFSET 2.33842 -0.294052 0.168128
                  }
                }
              }
              JOINT lPinky1
              {
                OFFSET 8.27202 -0.0477905 -0.4584
                CHANNELS 3 Zrotation Xrotation Yrotation
                JOINT lPinky2
                {
                  OFFSET 1.82734 -0.647385 -0.700984
                  CHANNELS 3 Zrotation Xrotation Yrotation
                  End Site
                  {
                    OFFSET 1.69225 -0.51767 -0.607171
                  }
                }
              }
            }
          }
        }
      }
    }
  }
  JOINT rButtock
  {
    OFFSET -8.77824 4.35084 1.2192
    CHANNELS 3 Zrotation Xrotation Yrotation
    JOINT rThigh
    {
      OFFSET 0 -1.70687 -2.19456
      CHANNELS 3 Zrotation Xrotation Yrotation
      JOINT rShin
      {
        OFFSET 0 -36.8199 0.73152
        CHANNELS 3 Zrotation Xrotation Yrotation
        JOINT rFoot
        {
          OFFSET 0.73152 -45.1104 -5.12064
          CHANNELS 3 Zrotation Xrotation Yrotation
          End Site
          {
            OFFSET -1.1221 -3.69964 12.103
          }
        }
      }
    }
  }
  JOINT lButtock
  {
    OFFSET 8.77824 4.35084 1.2192
    CHANNELS 3 Zrotation Xrotation Yrotation
    JOINT lThigh
    {
      OFFSET 0 -1.70687 -2.19456
      CHANNELS 3 Zrotation Xrotation Yrotation
      JOINT lShin
      {
        OFFSET 0 -36.8199 0.73152
        CHANNELS 3 Zrotation Xrotation Yrotation
        JOINT lFoot
        {
          OFFSET -0.73152 -45.1104 -5.12064
          CHANNELS 3 Zrotation Xrotation Yrotation
          End Site
          {
            OFFSET 1.1221 -3.69964 12.103
          }
        }
      }
    }
  }
}
MOTION
Frames:	4
Frame Time:	0.00833333
-2.13695 82.4855 50.7198 0.0 0.0 0.0 -4.35905 0.0062963 -0.117467 -1.20171 0.0324841 -0.207701 2.04518e-14 -2.38542e-15 -3.97569e-16 5.98155e-14 -6.36111e-15 -9.42674e-16 -0.0 0.0 0.0 -0.0 0.0 0.0 9.74153e-15 3.63403e-16 1.98785e-16 2.02656e-13 7.88305e-15 -2.78299e-15 3.4673e-12 -7.61743e-13 -1.04958e-13 3.93804e-11 2.40485e-12 -6.83819e-13 9.29458e-11 3.55837e-12 -1.69842e-12 1.60507e-10 6.14483e-12 -2.94996e-12 9.29537e-11 3.56302e-12 -1.70796e-12 7.73091 5.47488 0.417314 9.29482e-11 3.55894e-12 -1.69524e-12 2.90554 0.965183 0.102902 9.29619e-11 3.55954e-12 -1.70239e-12 10.2786 0.731801 0.0259123 9.29477e-11 3.55666e-12 -1.7016e-12 2.22167 -0.733487 -0.20892 9.74004e-15 3.58744e-16 -2.98177e-16 1.97417e-13 7.8023e-15 -3.97569e-15 3.41353e-12 1.2917e-12 -8.5875e-14 3.94061e-11 3.41015e-13 -6.80639e-13 9.29095e-11 3.53684e-12 -1.71432e-12 1.60452e-10 6.10667e-12 -2.93645e-12 9.28992e-11 3.54115e-12 -1.71114e-12 -7.73091 5.47488 -0.417314 9.29075e-11 3.53787e-12 -1.70796e-12 -2.90554 0.965183 -0.102902 9.28885e-11 3.53837e-12 -1.70557e-12 -10.2786 0.731801 -0.0259123 9.291e-11 3.53797e-12 -1.70478e-12 -2.22167 -0.733487 0.20892 -2.03217e-16 0.0 -3.88251e-19 -2.89265 -1.94436 0.0304895 -0.00794096 -2.07875 -0.0648128 -0.417804 4.00219 0.126457 2.03217e-16 0.0 3.88251e-19 -3.72532 -11.2507 0.483794 -0.0143129 14.7726 -0.388796 0.54477 -3.54245 0.0125154
-4.25499 82.2561 48.7424 -8.0599 -3.5103 8.5515 -2.44404 -1.95321 0.262065 -1.77682 -2.84614 -0.226636 -2.58218 3.82837 -3.3719 5.60264 -2.7823 -6.25705 -0.0 0.0 0.0 -0.0 0.0 0.0 6.46324e-14 2.92144e-14 -2.15596e-14 23.0797 0.734966 -3.02089 -3.78381 -1.64084 5.9923 0.263413 11.4324 1.49379 6.2794e-10 7.20547e-11 -8.36871e-10 1.05612e-09 1.56871e-10 -1.46137e-09 6.2795e-10 7.20581e-11 -8.36879e-10 7.73091 5.47488 0.417314 6.27944e-10 7.20555e-11 -8.36869e-10 2.90554 0.965183 0.102902 6.27954e-10 7.20566e-11 -8.36876e-10 10.2786 0.731801 0.0259123 6.27941e-10 7.2054e-11 -8.36874e-10 2.22167 -0.733487 -0.20892 6.45998e-14 2.92064e-14 -2.20204e-14 -22.9148 2.24531 3.39837 3.43494 -1.43071 -5.49912 -0.0855652 6.53417 -0.897286 -7.65632e-10 -3.98894e-10 -8.34518e-12 -1.32367e-09 -6.82857e-10 2.46569e-12 -7.65639e-10 -3.98888e-10 -8.34011e-12 -7.73091 5.47488 -0.417314 -7.65632e-10 -3.9889e-10 -8.33882e-12 -2.90554 0.965183 -0.102902 -7.65649e-10 -3.9889e-10 -8.3389e-12 -10.2786 0.731801 -0.0259123 -7.65631e-10 -3.98889e-10 -8.34115e-12 -2.22167 -0.733487 0.20892 -2.03217e-16 0.0 -3.88251e-19 -1.56889 -2.61939 7.07878 0.00478368 -1.96003 0.0404335 -0.821674 1.50727 -6.72076 2.03217e-16 0.0 3.88251e-19 -4.16353 -9.64627 -12.3365 0.00318546 14.3198 -0.154474 1.95851 -12.2003 15.5596
-4.29114 82.2495 48.6466 -8.1321 -3.4819 8.6669 -0.385399 -4.02022 0.677189 -2.40437 -5.88605 -0.245652 -4.80891 7.88664 -6.99584 10.9061 -5.67703 -12.9367 -0.0 0.0 0.0 -0.0 0.0 0.0 1.28233e-13 6.35763e-14 -4.33785e-14 47.5804 1.45174 -6.23435 -7.41378 -3.31621 12.3441 -0.160037 23.5303 3.28995 1.22571e-09 1.71973e-10 -1.80831e-09 2.0557e-09 3.66369e-10 -3.15687e-09 1.22572e-09 1.71975e-10 -1.80832e-09 7.73091 5.47488 0.417314 1.22572e-09 1.71974e-10 -1.80831e-09 2.90554 0.965183 0.102902 1.22572e-09 1.71976e-10 -1.80832e-09 10.2786 0.731801 0.0259123 1.22571e-09 1.71974e-10 -1.80832e-09 2.22167 -0.733487 -0.20892 1.28165e-13 6.35645e-14 -4.38041e-14 -47.3988 4.51235 7.01238 6.74378 -2.88279 -11.2844 0.0535086 13.5182 -1.89719 -1.76035e-09 -8.82687e-10 -1.18666e-11 -3.04306e-09 -1.51134e-09 1.57691e-11 -1.76035e-09 -8.8268e-10 -1.18595e-11 -7.73091 5.47488 -0.417314 -1.76034e-09 -8.82681e-10 -1.18603e-11 -2.90554 0.965183 -0.102902 -1.76036e-09 -8.8268e-10 -1.1863e-11 -10.2786 0.731801 -0.0259123 -1.76034e-09 -8.82679e-10 -1.18686e-11 -2.22167 -0.733487 0.20892 -2.03217e-16 0.0 -3.88251e-19 0.020974 -3.25107 14.5251 0.0177657 -1.8351 0.151776 -1.88936 -1.07794 -13.9426 2.03217e-16 0.0 3.88251e-19 -3.85306 -7.5617 -25.7595 0.0257898 13.8395 0.0926701 8.53134 -18.918 33.2638
-4.34885 82.2426 48.5522 -8.2425 -3.461 8.792 1.4642 -5.87136 1.02606 -2.93294 -8.60336 -0.266667 -6.37983 11.3246 -10.2957 15.0063 -7.9483 -18.9377 -0.0 0.0 0.0 -0.0 0.0 0.0 1.74414e-13 8.69165e-14 -6.50764e-14 69.4706 2.18039 -9.06855 -10.3376 -4.70756 18.0324 -1.31292 34.1937 5.31279 1.69793e-09 2.09047e-10 -2.50722e-09 2.84733e-09 4.58324e-10 -4.37821e-09 1.69794e-09 2.09048e-10 -2.50722e-09 7.73091 5.47488 0.417314 1.69793e-09 2.09049e-10 -2.50722e-09 2.90554 0.965183 0.102902 1.69794e-09 2.09051e-10 -2.50722e-09 10.2786 0.731801 0.0259123 1.69793e-09 2.09049e-10 -2.50722e-09 2.22167 -0.733487 -0.20892 1.74319e-13 8.69017e-14 -6.5465e-14 -69.5434 6.64092 10.2568 9.49177 -4.13424 -16.5365 0.389083 19.5827 -2.83869 -2.48272e-09 -1.20375e-09 -2.16069e-11 -4.29191e-09 -2.06078e-09 1.327e-11 -2.48272e-09 -1.20375e-09 -2.15981e-11 -7.73091 5.47488 -0.417314 -2.48271e-09 -1.20375e-09 -2.16005e-11 -2.90554 0.965183 -0.102902 -2.48272e-09 -1.20375e-09 -2.16056e-11 -10.2786 0.731801 -0.0259123 -2.48271e-09 -1.20374e-09 -2.16139e-11 -2.22167 -0.733487 0.20892 -2.03217e-16 0.0 -3.88251e-19 1.56147 -3.7578 21.2009 0.0289239 -1.72257 0.250883 -3.38459 -3.23445 -20.4416 2.03217e-16 0.0 3.88251e-19 -2.88834 -5.63874 -37.6406 0.0496076 13.4137 0.311358 17.798 -21.045 49.9241
